<svg width="160" height="104" viewBox="0 0 160 104" fill="none" xmlns="http://www.w3.org/2000/svg">
<rect x="0.5" y="103.5" width="103" height="159" rx="7.5" transform="rotate(-90 0.5 103.5)" fill="url(#paint0_linear_1447_29378)" fill-opacity="0.5" stroke="url(#paint1_linear_1447_29378)"/>
<path d="M85.223 85.8182L85.2905 84.3196L84.0263 85.1328L83.6392 84.4581L84.9815 83.7727L83.6392 83.0874L84.0263 82.4126L85.2905 83.2259L85.223 81.7273H85.9936L85.9261 83.2259L87.1903 82.4126L87.5774 83.0874L86.2351 83.7727L87.5774 84.4581L87.1903 85.1328L85.9261 84.3196L85.9936 85.8182H85.223ZM90.4379 85.8182L90.5053 84.3196L89.2411 85.1328L88.854 84.4581L90.1964 83.7727L88.854 83.0874L89.2411 82.4126L90.5053 83.2259L90.4379 81.7273H91.2085L91.141 83.2259L92.4052 82.4126L92.7923 83.0874L91.4499 83.7727L92.7923 84.4581L92.4052 85.1328L91.141 84.3196L91.2085 85.8182H90.4379ZM95.6527 85.8182L95.7202 84.3196L94.456 85.1328L94.0689 84.4581L95.4112 83.7727L94.0689 83.0874L94.456 82.4126L95.7202 83.2259L95.6527 81.7273H96.4233L96.3558 83.2259L97.62 82.4126L98.0071 83.0874L96.6648 83.7727L98.0071 84.4581L97.62 85.1328L96.3558 84.3196L96.4233 85.8182H95.6527ZM100.868 85.8182L100.935 84.3196L99.6708 85.1328L99.2837 84.4581L100.626 83.7727L99.2837 83.0874L99.6708 82.4126L100.935 83.2259L100.868 81.7273H101.638L101.571 83.2259L102.835 82.4126L103.222 83.0874L101.88 83.7727L103.222 84.4581L102.835 85.1328L101.571 84.3196L101.638 85.8182H100.868ZM108.729 85.8182L108.796 84.3196L107.532 85.1328L107.145 84.4581L108.487 83.7727L107.145 83.0874L107.532 82.4126L108.796 83.2259L108.729 81.7273H109.499L109.432 83.2259L110.696 82.4126L111.083 83.0874L109.741 83.7727L111.083 84.4581L110.696 85.1328L109.432 84.3196L109.499 85.8182H108.729ZM113.944 85.8182L114.011 84.3196L112.747 85.1328L112.36 84.4581L113.702 83.7727L112.36 83.0874L112.747 82.4126L114.011 83.2259L113.944 81.7273H114.714L114.647 83.2259L115.911 82.4126L116.298 83.0874L114.956 83.7727L116.298 84.4581L115.911 85.1328L114.647 84.3196L114.714 85.8182H113.944ZM122.682 89.0994C122.237 89.0994 121.837 89.0142 121.482 88.8438C121.129 88.6709 120.847 88.4342 120.637 88.1335C120.426 87.8329 120.314 87.4896 120.299 87.1037H121.365C121.391 87.4162 121.529 87.6731 121.78 87.8743C122.031 88.0755 122.332 88.1761 122.682 88.1761C122.962 88.1761 123.209 88.1122 123.424 87.9844C123.642 87.8542 123.813 87.6754 123.936 87.4482C124.061 87.2209 124.124 86.9616 124.124 86.6705C124.124 86.3745 124.06 86.1106 123.932 85.8786C123.804 85.6465 123.628 85.4643 123.403 85.3317C123.181 85.1991 122.925 85.1316 122.636 85.1293C122.416 85.1293 122.194 85.1671 121.972 85.2429C121.749 85.3187 121.569 85.4181 121.432 85.5412L120.427 85.392L120.836 81.7273H124.834V82.6683H121.748L121.517 84.7031H121.56C121.702 84.5658 121.89 84.451 122.125 84.3587C122.361 84.2663 122.615 84.2202 122.885 84.2202C123.327 84.2202 123.721 84.3255 124.067 84.5362C124.415 84.7469 124.689 85.0346 124.887 85.3991C125.089 85.7614 125.188 86.178 125.186 86.6491C125.188 87.1203 125.082 87.5405 124.866 87.9098C124.653 88.2791 124.357 88.5703 123.978 88.7834C123.602 88.9941 123.17 89.0994 122.682 89.0994ZM126.728 89L129.903 82.7216V82.6683H126.231V81.7273H131.039V82.7003L127.875 89H126.728ZM134.585 89.0994C134.076 89.0994 133.626 89.0118 133.235 88.8366C132.847 88.6615 132.543 88.42 132.323 88.1122C132.102 87.8045 131.994 87.4541 131.996 87.0611C131.994 86.7533 132.056 86.4704 132.184 86.2124C132.314 85.9519 132.491 85.7353 132.713 85.5625C132.936 85.3873 133.184 85.276 133.459 85.2287V85.1861C133.097 85.0985 132.807 84.9044 132.589 84.6037C132.371 84.303 132.263 83.9574 132.266 83.5668C132.263 83.1951 132.362 82.8636 132.561 82.5724C132.762 82.2789 133.038 82.0481 133.388 81.88C133.738 81.7119 134.137 81.6278 134.585 81.6278C135.027 81.6278 135.423 81.7131 135.771 81.8835C136.121 82.0516 136.397 82.2824 136.598 82.576C136.799 82.8672 136.901 83.1974 136.904 83.5668C136.901 83.9574 136.79 84.303 136.57 84.6037C136.35 84.9044 136.063 85.0985 135.71 85.1861V85.2287C135.983 85.276 136.228 85.3873 136.445 85.5625C136.666 85.7353 136.841 85.9519 136.971 86.2124C137.104 86.4704 137.171 86.7533 137.173 87.0611C137.171 87.4541 137.06 87.8045 136.84 88.1122C136.619 88.42 136.314 88.6615 135.923 88.8366C135.535 89.0118 135.089 89.0994 134.585 89.0994ZM134.585 88.201C134.885 88.201 135.146 88.1513 135.366 88.0518C135.586 87.95 135.757 87.8092 135.877 87.6293C135.998 87.447 136.06 87.2339 136.062 86.9901C136.06 86.7367 135.993 86.513 135.863 86.3189C135.735 86.1248 135.561 85.9721 135.341 85.8608C135.121 85.7495 134.869 85.6939 134.585 85.6939C134.298 85.6939 134.044 85.7495 133.821 85.8608C133.599 85.9721 133.423 86.1248 133.296 86.3189C133.168 86.513 133.105 86.7367 133.107 86.9901C133.105 87.2339 133.163 87.447 133.281 87.6293C133.402 87.8092 133.574 87.95 133.796 88.0518C134.019 88.1513 134.282 88.201 134.585 88.201ZM134.585 84.8168C134.826 84.8168 135.04 84.7682 135.227 84.6712C135.414 84.5741 135.561 84.4392 135.668 84.2663C135.777 84.0935 135.832 83.8911 135.835 83.6591C135.832 83.4318 135.778 83.233 135.671 83.0625C135.567 82.892 135.422 82.7607 135.235 82.6683C135.048 82.5736 134.831 82.5263 134.585 82.5263C134.334 82.5263 134.114 82.5736 133.924 82.6683C133.737 82.7607 133.592 82.892 133.487 83.0625C133.383 83.233 133.332 83.4318 133.335 83.6591C133.332 83.8911 133.384 84.0935 133.491 84.2663C133.597 84.4392 133.744 84.5741 133.931 84.6712C134.121 84.7682 134.338 84.8168 134.585 84.8168ZM138.446 89V88.2045L140.907 85.6548C141.169 85.3778 141.386 85.1352 141.556 84.9268C141.729 84.7161 141.858 84.5161 141.944 84.3267C142.029 84.1373 142.071 83.9361 142.071 83.723C142.071 83.4815 142.015 83.2732 141.901 83.098C141.787 82.9205 141.632 82.7843 141.436 82.6896C141.239 82.5926 141.018 82.544 140.772 82.544C140.511 82.544 140.284 82.5973 140.09 82.7038C139.896 82.8104 139.747 82.9607 139.642 83.1548C139.538 83.349 139.486 83.5762 139.486 83.8366H138.439C138.439 83.3939 138.54 83.0069 138.744 82.6754C138.948 82.344 139.227 82.0871 139.582 81.9048C139.937 81.7202 140.341 81.6278 140.793 81.6278C141.25 81.6278 141.652 81.719 142 81.9013C142.351 82.0812 142.624 82.3274 142.821 82.6399C143.017 82.95 143.115 83.3004 143.115 83.6911C143.115 83.9609 143.065 84.2249 142.963 84.483C142.863 84.741 142.689 85.0286 142.441 85.3459C142.192 85.6607 141.846 86.0431 141.404 86.4929L139.958 88.0057V88.0589H143.233V89H138.446Z" fill="white"/>
<path d="M14.8694 78.9966L13.474 79.0019L13.4793 80.2961L15.0346 80.2908V80.6796L13.016 80.6903L13 77.1005L14.9387 77.0898V77.4786L13.4634 77.484L13.4687 78.6184L14.8641 78.6131L14.8694 78.9966Z" fill="white"/>
<path d="M15.8332 78.0977L16.2007 78.6516C16.2966 78.7954 16.3765 78.9285 16.4617 79.0723H16.4777C16.5629 78.9179 16.6481 78.7847 16.7333 78.6462L17.0955 78.0977H17.6015L16.728 79.3493L17.6387 80.6755H17.1061L16.728 80.0949C16.6268 79.9458 16.5416 79.802 16.451 79.6475H16.4404C16.3552 79.802 16.2646 79.9405 16.1687 80.0949L15.7959 80.6755H15.2793L16.1901 79.3546L15.3113 78.0977H15.8332Z" fill="white"/>
<path d="M18.0813 78.9279C18.0813 78.5977 18.0707 78.3314 18.0547 78.0864H18.4755L18.4968 78.5284H18.5074C18.6992 78.2142 19.0028 78.0278 19.4182 78.0225C20.0413 78.0225 20.51 78.5444 20.5154 79.3274C20.5207 80.2541 19.9561 80.7121 19.3489 80.7175C19.0081 80.7175 18.7098 80.5683 18.5554 80.318H18.5447L18.55 81.7188H18.0867L18.0813 78.9279ZM18.5447 79.615C18.5447 79.6842 18.5554 79.7481 18.566 79.8067C18.6512 80.1316 18.9335 80.3553 19.2691 80.35C19.7644 80.35 20.052 79.9399 20.0467 79.3487C20.0467 78.832 19.7697 78.39 19.2744 78.3953C18.9548 78.3953 18.6566 78.6296 18.566 78.9812C18.55 79.0397 18.5341 79.109 18.5341 79.1729L18.5447 79.615Z" fill="white"/>
<path d="M21.6226 77.3466C21.6279 77.5064 21.5107 77.6343 21.3243 77.6343C21.1592 77.6343 21.0421 77.5064 21.0421 77.3466C21.0421 77.1815 21.1645 77.0537 21.335 77.0537C21.5107 77.0537 21.6226 77.1815 21.6226 77.3466ZM21.1166 80.6488L21.106 78.071H21.5747L21.5853 80.6488H21.1166Z" fill="white"/>
<path d="M22.3577 78.875C22.3577 78.5714 22.3524 78.3104 22.3311 78.0708H22.7412L22.7572 78.5767H22.7785C22.8957 78.2305 23.1726 78.0122 23.4869 78.0068C23.5401 78.0068 23.5774 78.0122 23.62 78.0228V78.4649C23.5721 78.4542 23.5242 78.4489 23.4602 78.4489C23.13 78.4489 22.8957 78.6992 22.8371 79.0507C22.8264 79.1147 22.8158 79.1892 22.8158 79.2691L22.8211 80.6432H22.3577V78.875Z" fill="white"/>
<path d="M24.3976 78.06L24.9675 79.5779C25.0261 79.7484 25.09 79.9508 25.1326 80.1052H25.1433C25.1912 79.9508 25.2445 79.7537 25.3084 79.5673L25.8144 78.0547H26.3097L25.6173 79.8922C25.2871 80.7763 25.0581 81.229 24.7385 81.5113C24.5095 81.7137 24.2805 81.7936 24.1633 81.8202L24.0461 81.4261C24.1633 81.3888 24.3177 81.3142 24.4562 81.1971C24.584 81.0959 24.7438 80.9148 24.8504 80.6751C24.8717 80.6272 24.8876 80.5899 24.8876 80.5633C24.8876 80.5366 24.877 80.4994 24.8557 80.4408L23.8917 78.0707L24.3976 78.06Z" fill="white"/>
<path d="M27.8761 77.08C28.1583 77.0374 28.4939 77.0055 28.8614 77.0001C29.5271 76.9948 30.0012 77.1493 30.3154 77.4422C30.635 77.7351 30.8267 78.1452 30.8267 78.7258C30.832 79.3116 30.6509 79.791 30.3154 80.1212C29.9799 80.4568 29.4259 80.6432 28.7336 80.6432C28.4033 80.6432 28.1264 80.6325 27.892 80.6059L27.8761 77.08ZM28.3501 80.249C28.4673 80.2703 28.6377 80.2757 28.8188 80.2757C29.8094 80.2703 30.342 79.7164 30.342 78.7471C30.342 77.9002 29.8627 77.3676 28.8827 77.3676C28.643 77.3676 28.4619 77.3889 28.3394 77.4156L28.3501 80.249Z" fill="white"/>
<path d="M32.8452 80.6004L32.8079 80.2755H32.7919C32.6481 80.4779 32.3712 80.659 32.0037 80.6643C31.4817 80.6643 31.2154 80.3021 31.2101 79.9293C31.2101 79.3062 31.7587 78.9653 32.7546 78.9653V78.912C32.7546 78.699 32.6907 78.3155 32.1688 78.3208C31.9291 78.3208 31.6788 78.3954 31.4977 78.5179L31.3912 78.209C31.6042 78.0705 31.9131 77.98 32.238 77.9746C33.0263 77.9693 33.218 78.5073 33.2233 79.0239L33.2287 79.9879C33.2287 80.2116 33.2393 80.43 33.2713 80.6057L32.8452 80.6004ZM32.7706 79.2849C32.2593 79.2742 31.6788 79.3701 31.6841 79.8707C31.6841 80.1743 31.8865 80.3181 32.1262 80.3181C32.4617 80.3181 32.6748 80.1051 32.7493 79.8814C32.7653 79.8334 32.7759 79.7802 32.7759 79.7323L32.7706 79.2849Z" fill="white"/>
<path d="M34.5115 77.2773L34.5168 78.0177L35.1879 78.0123V78.3692L34.5168 78.3745L34.5221 79.7646C34.5221 80.0842 34.6127 80.2653 34.8736 80.2653C34.9961 80.2653 35.0867 80.2493 35.1453 80.2333L35.1666 80.5848C35.076 80.6221 34.9322 80.6487 34.7511 80.6487C34.5328 80.6487 34.357 80.5795 34.2452 80.4517C34.112 80.3132 34.0641 80.0842 34.0641 79.7806L34.0588 78.3745H33.6593V78.0177H34.0588V77.3998L34.5115 77.2773Z" fill="white"/>
<path d="M35.9495 79.381C35.9655 80.0148 36.3703 80.2704 36.839 80.2704C37.1745 80.2704 37.3769 80.2119 37.5527 80.1373L37.6326 80.4728C37.4675 80.5474 37.1852 80.6326 36.7751 80.6379C35.9815 80.6433 35.5075 80.1213 35.5022 79.3437C35.4968 78.5661 35.9549 77.9536 36.7058 77.9483C37.5473 77.9429 37.771 78.6833 37.7764 79.1573C37.7764 79.2532 37.7657 79.3277 37.7604 79.3757L35.9495 79.381ZM37.3237 79.0401C37.329 78.7419 37.1958 78.2785 36.6685 78.2838C36.1945 78.2838 35.9868 78.7206 35.9549 79.0454L37.3237 79.0401Z" fill="white"/>
<path d="M16.8295 90.6732C16.4461 91.2111 15.9081 91.4827 15.2104 91.4881C14.518 91.4881 13.9748 91.2218 13.586 90.6892C13.1972 90.1512 13.0001 89.4375 13.0001 88.5428C12.9948 87.648 13.1865 86.929 13.57 86.391C13.9535 85.8531 14.4914 85.5815 15.1891 85.5761C15.8815 85.5708 16.4248 85.8371 16.8136 86.375C17.2024 86.913 17.3994 87.6267 17.3994 88.5214C17.4048 89.4162 17.213 90.1353 16.8295 90.6732ZM14.1399 90.1725C14.3902 90.556 14.7471 90.7477 15.2104 90.7477C15.6738 90.7477 16.0306 90.5507 16.281 90.1672C16.5313 89.7784 16.6538 89.2351 16.6538 88.5268C16.6538 87.8184 16.5206 87.2751 16.2703 86.8863C16.0147 86.4975 15.6578 86.3058 15.1944 86.3111C14.7311 86.3111 14.3796 86.5082 14.1292 86.8917C13.8789 87.2805 13.7564 87.8291 13.7617 88.5374C13.7617 89.2405 13.8896 89.7891 14.1399 90.1725Z" fill="white"/>
<path d="M17.9642 91.3712V90.7533L19.9668 88.6922C20.4994 88.1542 20.771 87.6909 20.7657 87.3021C20.7657 86.9825 20.6645 86.7322 20.4674 86.5564C20.2703 86.3753 20.0307 86.2901 19.7484 86.2901C19.2105 86.2901 18.8217 86.5511 18.5767 87.0624L17.9375 86.6896C18.1133 86.3167 18.3636 86.0398 18.6779 85.848C18.9921 85.6563 19.3436 85.5604 19.7324 85.5604C20.2118 85.5604 20.6272 85.7149 20.9787 86.0291C21.3356 86.3434 21.5113 86.7641 21.5113 87.2967C21.5113 87.8719 21.1758 88.5004 20.5047 89.1822L19.056 90.6362L21.6338 90.6255L21.6391 91.3605L17.9642 91.3712Z" fill="white"/>
<path d="M22.6991 92.1542L22.2784 92.1648L25.506 84.8308L25.9321 84.8202L22.6991 92.1542Z" fill="white"/>
<path d="M28.8183 87.9575C29.255 88.0374 29.6118 88.2238 29.8888 88.5168C30.1658 88.8097 30.3096 89.1825 30.3096 89.6299C30.3096 90.1838 30.1231 90.6206 29.745 90.9454C29.3668 91.265 28.9035 91.4301 28.3602 91.4301C27.9288 91.4301 27.54 91.3342 27.2045 91.1372C26.8689 90.9401 26.6292 90.6525 26.4854 90.2797L27.1192 89.9015C27.2897 90.4288 27.7051 90.6898 28.3602 90.6845C28.7117 90.6845 28.9993 90.5886 29.223 90.4022C29.4467 90.2158 29.5533 89.9601 29.5533 89.6246C29.5533 89.2944 29.4414 89.0334 29.2177 88.847C28.994 88.6606 28.7064 88.57 28.3549 88.57H28.1578L27.8542 88.1066L29.1645 86.3171L26.6292 86.3277L26.6239 85.6194L30.0432 85.6034V86.2692L28.8183 87.9575Z" fill="white"/>
<path d="M34.8052 90.5941C34.4218 91.132 33.8839 91.4036 33.1861 91.409C32.4884 91.4143 31.9505 91.1427 31.5617 90.6101C31.1729 90.0721 30.9758 89.3584 30.9758 88.4636C30.9705 87.5689 31.1622 86.8498 31.5457 86.3119C31.9292 85.774 32.4671 85.5024 33.1648 85.497C33.8625 85.4917 34.4005 85.7633 34.7893 86.2959C35.1781 86.8285 35.3751 87.5476 35.3751 88.4423C35.3751 89.3424 35.1887 90.0561 34.8052 90.5941ZM32.1156 90.0934C32.3659 90.4769 32.7228 90.6686 33.1861 90.6686C33.6495 90.6686 34.0064 90.4716 34.2514 90.0881C34.5017 89.6993 34.6242 89.156 34.6242 88.4477C34.6242 87.7393 34.491 87.196 34.2407 86.8072C33.985 86.4184 33.6282 86.2267 33.1648 86.232C32.7015 86.232 32.3499 86.4291 32.0996 86.8126C31.8546 87.2014 31.7268 87.75 31.7321 88.4583C31.7374 89.1667 31.8653 89.71 32.1156 90.0934Z" fill="white"/>
<path d="M28.6372 24.7339L14.731 24.7903C13.8096 24.7954 13.048 24.0681 13.0426 23.1819L13 13.3012C12.9947 12.4151 13.751 11.6826 14.6724 11.6775L28.5786 11.6211C29.5 11.616 30.2616 12.3433 30.2669 13.2295L30.3095 23.1102C30.3149 24.0015 29.5586 24.7339 28.6372 24.7339Z" fill="white"/>
<path d="M19.687 23.0232C19.6125 23.0232 19.5432 22.9873 19.506 22.9207C19.4527 22.8285 19.4953 22.7107 19.5912 22.6595C19.8788 22.5161 20.2729 22.2446 20.4966 21.7836C20.7842 21.1945 20.7043 20.5543 20.5818 20.5031C20.5499 20.4877 20.4327 20.5491 20.3581 20.585C20.1717 20.6772 19.9107 20.8053 19.6071 20.7079C19.3089 20.6106 19.1651 20.3596 19.0959 20.2367C18.6378 19.4428 18.4887 17.3683 18.9627 16.3336C19.1225 15.9904 19.3355 15.7855 19.6018 15.724C19.8735 15.6626 20.0971 15.7701 20.2782 15.8572C20.4274 15.9289 20.5019 15.9597 20.5445 15.9341C20.7309 15.8265 20.7256 15.1657 20.4593 14.6433C20.2303 14.1823 19.8362 13.9159 19.5432 13.7725C19.4474 13.7264 19.4048 13.6086 19.458 13.5164C19.506 13.4242 19.6285 13.3832 19.7243 13.4344C20.0705 13.6035 20.5392 13.921 20.8162 14.4794C21.0931 15.0325 21.2263 15.9853 20.7469 16.267C20.5072 16.4104 20.2729 16.2977 20.0918 16.2055C19.9533 16.1389 19.8202 16.0724 19.6924 16.1031C19.5166 16.1441 19.3941 16.3387 19.3249 16.4924C18.9094 17.3939 19.0373 19.3557 19.442 20.0523C19.5113 20.1701 19.5912 20.2982 19.735 20.3443C19.8681 20.3904 19.9959 20.334 20.177 20.2418C20.3528 20.1547 20.5499 20.0574 20.7576 20.1547C21.205 20.3596 21.1783 21.2867 20.8588 21.9475C20.5871 22.511 20.1184 22.8285 19.7723 23.0027C19.751 23.018 19.719 23.0232 19.687 23.0232Z" fill="#9678DA"/>
<path d="M19.0606 16.681L15.4602 16.6964C15.3484 16.6964 15.2578 16.6093 15.2578 16.5069C15.2578 16.3993 15.3484 16.3122 15.4549 16.3122L19.0553 16.2969C19.1671 16.2969 19.2576 16.3839 19.2576 16.4864C19.263 16.594 19.1724 16.681 19.0606 16.681Z" fill="#9678DA"/>
<path d="M19.0762 20.142L15.4758 20.1573C15.364 20.1573 15.2734 20.0703 15.2734 19.9678C15.2734 19.8603 15.364 19.7732 15.4705 19.7732L19.0709 19.7578C19.1827 19.7578 19.2733 19.8449 19.2733 19.9473C19.2733 20.0498 19.1881 20.142 19.0762 20.142Z" fill="#9678DA"/>
<path d="M23.8848 23.0065C23.8529 23.0065 23.8209 23.0014 23.7943 22.986C23.4481 22.817 22.9794 22.4994 22.7025 21.9411C22.3722 21.2855 22.3403 20.3584 22.7877 20.1483C22.9954 20.051 23.1925 20.1483 23.3682 20.2303C23.5493 20.3174 23.6771 20.3737 23.8103 20.3276C23.9594 20.2764 24.0446 20.1227 24.0979 20.0305C24.492 19.3288 24.6038 17.367 24.1831 16.4706C24.1085 16.3169 23.986 16.1223 23.8103 16.0864C23.7037 16.0608 23.6345 15.9584 23.6611 15.8559C23.6878 15.7535 23.7943 15.6869 23.9008 15.7125C24.1671 15.774 24.3855 15.9738 24.5453 16.3169C25.0299 17.3465 24.8968 19.421 24.4494 20.2201C24.3802 20.343 24.2363 20.5991 23.9434 20.6964C23.6398 20.7989 23.3789 20.6708 23.1925 20.5786C23.1179 20.5428 22.9954 20.4864 22.9688 20.4967C22.8463 20.553 22.777 21.1933 23.07 21.7772C23.299 22.2382 23.6931 22.5046 23.986 22.648C24.0819 22.6941 24.1245 22.8119 24.0712 22.9041C24.0286 22.9656 23.9594 23.0065 23.8848 23.0065Z" fill="#9678DA"/>
<path d="M23.0559 15.8972C22.9707 15.8972 22.8962 15.846 22.8642 15.764C22.4328 14.5296 23.4288 13.5717 23.7537 13.4129C23.8495 13.3617 23.972 13.4027 24.0253 13.4949C24.0785 13.5871 24.0359 13.7049 23.9401 13.7561C23.7963 13.8278 22.8802 14.591 23.2477 15.6411C23.285 15.7435 23.2264 15.8511 23.1199 15.887C23.0986 15.8921 23.0772 15.8972 23.0559 15.8972Z" fill="#9678DA"/>
<path d="M28.0567 16.6459L24.4563 16.6612C24.3445 16.6612 24.2539 16.5742 24.2539 16.4717C24.2539 16.3642 24.3444 16.2771 24.451 16.2771L28.0513 16.2617C28.1632 16.2617 28.2537 16.3488 28.2537 16.4512C28.2591 16.5588 28.1685 16.6459 28.0567 16.6459Z" fill="#9678DA"/>
<path d="M28.0723 20.1088L24.4719 20.1241C24.3601 20.1241 24.2695 20.0371 24.2695 19.9346C24.2695 19.8271 24.3601 19.74 24.4666 19.74L28.067 19.7246C28.1788 19.7246 28.2694 19.8117 28.2694 19.9141C28.2747 20.0217 28.1841 20.1088 28.0723 20.1088Z" fill="#9678DA"/>
<defs>
<linearGradient id="paint0_linear_1447_29378" x1="96.2" y1="104" x2="-9.90655" y2="245.58" gradientUnits="userSpaceOnUse">
<stop stop-color="#A065EA"/>
<stop offset="0.51342" stop-color="#5C7AC8"/>
<stop offset="1" stop-color="#4A54A8"/>
</linearGradient>
<linearGradient id="paint1_linear_1447_29378" x1="52" y1="104" x2="52" y2="264" gradientUnits="userSpaceOnUse">
<stop stop-color="#B7C7FF"/>
<stop offset="1" stop-color="#CAC2FF" stop-opacity="0"/>
</linearGradient>
</defs>
</svg>
